<svg xmlns="http://www.w3.org/2000/svg" version="1.1" xmlns:xlink="http://www.w3.org/1999/xlink" xmlns:svgjs="http://svgjs.dev/svgjs" width="800" height="498" viewBox="0 0 800 498"><g transform="matrix(1,0,0,1,-0.48484848484849863,99.0833695661064)"><svg viewBox="0 0 396 247" data-background-color="#0d0c0c" preserveAspectRatio="xMidYMid meet" height="498" width="800" xmlns="http://www.w3.org/2000/svg" xmlns:xlink="http://www.w3.org/1999/xlink"><g id="tight-bounds" transform="matrix(1,0,0,1,0.2400000000000091,-0.09999999999999432)"><svg viewBox="0 0 395.52 247.2" height="247.2" width="395.52"><rect width="395.52" height="247.2" fill="url(#a031b3dc-0b02-4f31-904d-23a164de72b7)" mask="url(#5f1e4591-d4bf-4e3a-a8e7-879303a2efd1)" data-fill-palette-color="tertiary"></rect><g><svg></svg></g><g><svg viewBox="0 0 395.52 247.2" height="247.2" width="395.52"><g transform="matrix(1,0,0,1,75.54432,50.02306510119142)"><svg viewBox="0 0 244.43135999999998 147.15386979761715" height="147.15386979761715" width="244.43135999999998"><g><svg viewBox="0 0 244.43135999999998 147.15386979761715" height="147.15386979761715" width="244.43135999999998"><g transform="matrix(1,0,0,1,0,117.75371856053202)"><svg viewBox="0 0 244.43135999999998 29.40015123708512" height="29.40015123708512" width="244.43135999999998"><g id="textblocktransform"><svg viewBox="0 0 244.43135999999998 29.40015123708512" height="29.40015123708512" width="244.43135999999998" id="textblock"><g><svg viewBox="0 0 244.43135999999998 29.40015123708512" height="29.40015123708512" width="244.43135999999998"><g transform="matrix(1,0,0,1,0,0)"><svg width="244.43135999999998" viewBox="2.15 -38.5 364.53666666666504 43.85" height="29.40015123708512" data-palette-color="url(#33cc7111-fa26-43bf-bf46-54448ae32dac)"></svg></g></svg></g></svg></g></svg></g><g transform="matrix(1,0,0,1,70.27949082318008,0)"><svg viewBox="0 0 103.8723783536398 103.8723783536398" height="103.8723783536398" width="103.8723783536398"><g><svg></svg></g><g id="icon-0"><svg viewBox="0 0 103.8723783536398 103.8723783536398" height="103.8723783536398" width="103.8723783536398"><g><path d="M0 51.936c0-28.684 23.253-51.936 51.936-51.936 28.684 0 51.936 23.253 51.936 51.936 0 28.684-23.253 51.936-51.936 51.936-28.684 0-51.936-23.253-51.936-51.936zM51.936 101.221c27.219 0 49.285-22.066 49.285-49.285 0-27.219-22.066-49.285-49.285-49.285-27.219 0-49.285 22.066-49.285 49.285 0 27.219 22.066 49.285 49.285 49.285z" data-fill-palette-color="tertiary" fill="url(#a031b3dc-0b02-4f31-904d-23a164de72b7)" stroke="transparent"></path></g><g transform="matrix(1,0,0,1,30.79969912082283,25.09762626725974)"><svg viewBox="0 0 42.272980111994144 53.67712581912032" height="53.67712581912032" width="42.272980111994144"><g><svg xmlns="http://www.w3.org/2000/svg" xmlns:xlink="http://www.w3.org/1999/xlink" version="1.1" x="0" y="0" viewBox="26.638 20.337624951996943 46.721999999999994 59.32637504800307" enable-background="new 0 0 100 100" xml:space="preserve" height="53.67712581912032" width="42.272980111994144" class="icon-z$-0" data-fill-palette-color="accent" id="z$-0"><path fill="#85144b" d="M73.36 46.103c0-5.213-4.241-9.454-9.453-9.454-2.752 0-5.225 1.189-6.954 3.072-1.185-1.291-2.719-2.249-4.454-2.727v-7.078l5.31-5.311c0.977-0.977 0.977-2.559 0-3.535s-2.559-0.977-3.535 0l-6.043 6.043c-0.469 0.469-0.731 1.104-0.731 1.768v8.113c-1.734 0.478-3.268 1.436-4.452 2.724-0.09-0.099-0.174-0.202-0.27-0.298-1.786-1.787-4.16-2.771-6.687-2.771-1.381 0-2.5 1.119-2.5 2.5s1.119 2.5 2.5 2.5c1.189 0 2.308 0.464 3.151 1.309 0.84 0.838 1.303 1.955 1.303 3.146 0 1.189-0.463 2.308-1.304 3.149-0.843 0.842-1.961 1.306-3.15 1.306-1.188 0-2.308-0.464-3.149-1.306-0.841-0.841-1.304-1.959-1.304-3.149 0-1.381-1.119-2.5-2.5-2.5s-2.5 1.119-2.5 2.5c0 2.525 0.983 4.899 2.769 6.685 1.287 1.287 2.881 2.149 4.613 2.535-0.278 0.891-0.429 1.837-0.429 2.817 0 4.505 3.17 8.276 7.396 9.22-0.285 0.899-0.441 1.855-0.441 2.849 0 5.213 4.241 9.454 9.454 9.454s9.454-4.241 9.454-9.454c0-0.993-0.156-1.949-0.441-2.849 4.226-0.943 7.396-4.715 7.396-9.22 0-0.981-0.15-1.927-0.429-2.817C70.196 54.374 73.36 50.604 73.36 46.103zM49.999 41.648c2.456 0 4.454 1.998 4.454 4.454s-1.998 4.455-4.454 4.455-4.454-1.999-4.454-4.455S47.543 41.648 49.999 41.648zM43.045 62.592c-2.456 0-4.454-1.997-4.454-4.452 0-2.456 1.998-4.454 4.454-4.454s4.454 1.998 4.454 4.454C47.499 60.595 45.501 62.592 43.045 62.592zM49.999 74.662c-2.456 0-4.454-1.998-4.454-4.454s1.998-4.453 4.454-4.453 4.454 1.997 4.454 4.453S52.455 74.662 49.999 74.662zM56.953 62.592c-2.456 0-4.454-1.997-4.454-4.452 0-2.456 1.998-4.454 4.454-4.454s4.454 1.998 4.454 4.454C61.407 60.595 59.409 62.592 56.953 62.592zM63.907 50.558c-2.456 0-4.454-1.999-4.454-4.455s1.998-4.454 4.454-4.454 4.453 1.998 4.453 4.454S66.363 50.558 63.907 50.558z" data-fill-palette-color="accent"></path></svg></g></svg></g></svg></g></svg></g><g></g></svg></g></svg></g><g><path d="M105.817 43.082A122.216 122.216 0 0 1 289.703 43.082L287.052 43.082A119.564 119.564 0 0 0 108.468 43.082L105.817 43.082M105.817 204.118A122.216 122.216 0 0 0 289.703 204.118L287.052 204.118A119.564 119.564 0 0 1 108.468 204.118L105.817 204.118" fill="url(#a031b3dc-0b02-4f31-904d-23a164de72b7)" stroke="transparent" data-fill-palette-color="tertiary"></path></g></svg></g><defs></defs><mask id="135a3b97-f67f-4eee-aeee-7de9edb0f9a0"><g id="SvgjsG1055"><svg viewBox="0 0 395.52 247.2" height="247.2" width="395.52"><g><svg></svg></g><g><svg viewBox="0 0 395.52 247.2" height="247.2" width="395.52"><g transform="matrix(1,0,0,1,75.54432,50.02306510119142)"><svg viewBox="0 0 244.43135999999998 147.15386979761715" height="147.15386979761715" width="244.43135999999998"><g><svg viewBox="0 0 244.43135999999998 147.15386979761715" height="147.15386979761715" width="244.43135999999998"><g transform="matrix(1,0,0,1,0,117.75371856053202)"><svg viewBox="0 0 244.43135999999998 29.40015123708512" height="29.40015123708512" width="244.43135999999998"><g id="SvgjsG1054"><svg viewBox="0 0 244.43135999999998 29.40015123708512" height="29.40015123708512" width="244.43135999999998" id="SvgjsSvg1053"><g><svg viewBox="0 0 244.43135999999998 29.40015123708512" height="29.40015123708512" width="244.43135999999998"><g transform="matrix(1,0,0,1,0,0)"><svg width="244.43135999999998" viewBox="2.15 -38.5 364.53666666666504 43.85" height="29.40015123708512" data-palette-color="url(#33cc7111-fa26-43bf-bf46-54448ae32dac)"><path d="M21.35-11.25L21.35-11.25Q22.6-11.35 23.7-11.13 24.8-10.9 25.6-10.4L25.6-10.4Q25.3-4.5 22.33-1.38 19.35 1.75 14 1.75L14 1.75Q8.4 1.75 5.28-2.3 2.15-6.35 2.15-13.8L2.15-13.8Q2.15-22.95 6.25-28.8 10.35-34.65 16.9-34.65L16.9-34.65Q21.3-34.65 23.55-31.8 25.8-28.95 25.8-23.35L25.8-23.35Q24.7-22.75 23.53-22.5 22.35-22.25 20.6-22.25L20.6-22.25Q20.85-26.8 19.75-28.9 18.65-31 15.95-31L15.95-31Q12.6-31 10.28-26.48 7.95-21.95 7.95-15L7.95-15Q7.95-8.7 9.78-5.33 11.6-1.95 15.05-1.95L15.05-1.95Q18.2-1.95 19.9-4.45 21.6-6.95 21.35-11.25ZM54.9-36.35L54.9-36.35Q55.35-27.35 55.65-16.13 55.95-4.9 55.95 2.8L55.95 2.8Q54.6 2.8 53.02 2.63 51.45 2.45 50.65 2.25L50.65 2.25Q50.65-1 50.57-5.95 50.5-10.9 50.4-16.45L50.4-16.45Q46.35-16.4 43.05-16.2 39.75-16 36.9-15.6L36.9-15.6Q36.95-10.75 37.02-7.08 37.1-3.4 37.25-0.8L37.25-0.8Q36.35-0.55 34.97-0.4 33.6-0.25 32.5-0.3L32.5-0.3Q31.9-9.55 31.57-18.48 31.25-27.4 31.25-34.9L31.25-34.9Q31.85-35.25 32.77-35.48 33.7-35.7 34.75-35.7L34.75-35.7Q35.45-35.7 36.1-35.63 36.75-35.55 37.45-35.35L37.45-35.35Q37.2-32.9 37.07-28.95 36.95-25 36.9-19.6L36.9-19.6Q40.15-20.15 43.42-20.43 46.7-20.7 50.3-20.75L50.3-20.75Q50.1-26.5 49.92-30.38 49.75-34.25 49.5-36.65L49.5-36.65Q50.35-36.9 50.95-37 51.55-37.1 52.2-37.1L52.2-37.1Q52.9-37.1 53.62-36.9 54.35-36.7 54.9-36.35ZM90 3.7L90 3.7Q88.95 4.3 87.7 4.7 86.45 5.1 84.7 5.35L84.7 5.35Q84.09 1.1 83.4-2.73 82.7-6.55 81.84-10.05L81.84-10.05Q78.3-10.05 75.09-9.83 71.9-9.6 69.2-9.2L69.2-9.2Q68.15-6.55 66.97-3.95 65.8-1.35 64.5 1.2L64.5 1.2Q63.1 0.95 61.97 0.33 60.85-0.3 60-1.2L60-1.2Q64.3-8.9 67.12-16.38 69.95-23.85 72.7-35.3L72.7-35.3Q74.34-35.25 75.5-35.13 76.65-35 77.8-34.7L77.8-34.7Q82.59-25.95 85.4-17.05 88.2-8.15 90 3.7ZM75.25-29.05L75.25-29.05Q74.15-24.4 73.02-20.5 71.9-16.6 70.65-13.1L70.65-13.1Q73.3-13.45 75.87-13.65 78.45-13.85 80.84-13.9L80.84-13.9Q79.75-17.95 78.37-21.68 77-25.4 75.25-29.05ZM117.54-3.6L117.54-3.6Q117.49-2.15 117.24-0.83 116.99 0.5 116.49 1.7L116.49 1.7Q110.79 1.65 104.27 1.13 97.74 0.6 92.09-0.25L92.09-0.25Q92.04-1.5 92.14-2.63 92.24-3.75 92.49-4.55L92.49-4.55Q99.49-11.85 104.47-18.07 109.44-24.3 112.79-29.95L112.79-29.95Q108.19-30.3 103.89-30.83 99.59-31.35 95.09-32.1L95.09-32.1Q95.14-33.55 95.44-34.73 95.74-35.9 96.39-36.95L96.39-36.95Q101.59-35.9 107.02-35 112.44-34.1 119.24-33.1L119.24-33.1Q119.04-31.4 118.87-30.53 118.69-29.65 118.54-29.25L118.54-29.25Q114.94-23.75 109.82-17.55 104.69-11.35 97.39-3.6L97.39-3.6Q102.84-3.25 107.84-3.25 112.84-3.25 117.54-3.6ZM129.54-24.8L129.54-24.8Q129.54-16.5 129.41-10.7 129.29-4.9 129.04 0.9L129.04 0.9Q128.29 1.1 127.02 1.25 125.74 1.4 124.54 1.45L124.54 1.45Q124.69-8.35 124.42-17.07 124.14-25.8 123.49-33.2L123.49-33.2Q124.24-33.65 125.14-33.88 126.04-34.1 126.99-34.1L126.99-34.1Q127.49-34.1 127.97-34.05 128.44-34 129.34-33.85L129.34-33.85Q129.44-31.8 129.49-29.65 129.54-27.5 129.54-24.8ZM142.09-14.65L142.09-14.65Q142.14-11.3 142.34-7.33 142.54-3.35 142.84 1.5L142.84 1.5Q141.99 1.75 140.76 1.9 139.54 2.05 138.44 2.05L138.44 2.05Q137.44-9.5 136.99-17.82 136.54-26.15 136.54-33.6L136.54-33.6Q136.64-33.65 136.71-33.68 136.79-33.7 136.84-33.75L136.84-33.75Q138.14-34.4 139.46-34.75 140.79-35.1 142.49-35.3L142.49-35.3Q147.09-29.2 150.56-23.08 154.04-16.95 157.04-9.6L157.04-9.6Q157.09-10.95 157.11-12.58 157.14-14.2 157.14-17.6L157.14-17.6Q157.14-24.25 156.91-29.13 156.69-34 156.24-36.95L156.24-36.95Q157.89-37.45 159.21-37.65 160.54-37.85 161.89-37.9L161.89-37.9Q162.09-33.7 162.14-31.55 162.19-29.4 162.19-27.45L162.19-27.45Q162.19-19.95 161.94-13.83 161.69-7.7 161.14-1.3L161.14-1.3Q159.89-1.1 158.76-0.95 157.64-0.8 156.54-0.75L156.54-0.75Q152.84-9.4 149.36-15.7 145.89-22 142.04-27.05L142.04-27.05Q142.04-25.15 142.04-22.85 142.04-20.55 142.09-14.65ZM191.34-17.45L191.34-17.45Q191.24-12.6 191.84-8.1 192.44-3.6 193.78 0.95L193.78 0.95Q192.94 1.2 191.88 1.33 190.84 1.45 189.74 1.5L189.74 1.5Q189.09 0 188.53-1.6 187.99-3.2 187.53-4.95L187.53-4.95Q185.74-1.9 183.38-0.43 181.03 1.05 177.99 1.05L177.99 1.05Q173.34 1.05 170.59-3.13 167.84-7.3 167.84-14.5L167.84-14.5Q167.84-24 171.71-30.1 175.59-36.2 181.74-36.2L181.74-36.2Q185.99-36.2 188.46-33.1 190.94-30 191.03-24.7L191.03-24.7Q189.84-24.35 188.51-24.15 187.19-23.95 185.59-23.9L185.59-23.9Q185.38-28.25 184.13-30.4 182.88-32.55 180.63-32.55L180.63-32.55Q177.49-32.55 175.46-27.95 173.44-23.35 173.44-16.15L173.44-16.15Q173.44-9.9 175.01-6.55 176.59-3.2 179.44-3.2L179.44-3.2Q181.78-3.2 183.56-5 185.34-6.8 186.38-10.25L186.38-10.25Q186.13-11.6 185.99-13.2 185.84-14.8 185.69-16.85L185.69-16.85Q186.94-17.15 188.34-17.3 189.74-17.45 191.34-17.45ZM213.23-11.35L213.23-11.35Q213.28-8 213.46-4.58 213.63-1.15 213.98 3.4L213.98 3.4Q212.93 3.45 211.56 3.35 210.18 3.25 209.38 3.1L209.38 3.1Q208.58-5.55 208.28-12.05 207.98-18.55 207.98-26.9L207.98-26.9Q207.98-28.7 208.08-31.13 208.18-33.55 208.33-35.4L208.33-35.4Q210.78-36.25 213.38-36.68 215.98-37.1 218.48-37.1L218.48-37.1Q224.58-37.1 227.91-34.52 231.23-31.95 231.23-27.35L231.23-27.35Q231.23-22.05 226.71-18.03 222.18-14 213.23-11.35ZM214.03-33.1L214.03-33.1Q213.63-28.9 213.43-24.73 213.23-20.55 213.23-15.45L213.23-15.45Q213.23-15.4 213.23-15.33 213.23-15.25 213.23-15.15L213.23-15.15Q219.38-16.75 222.53-19.63 225.68-22.5 225.68-26.55L225.68-26.55Q225.68-29.95 223.68-31.8 221.68-33.65 217.93-33.65L217.93-33.65Q216.93-33.65 215.93-33.5 214.93-33.35 214.03-33.1ZM255.73-35.35L255.73-35.35Q256.88-30.75 257.43-26.73 257.98-22.7 257.98-19L257.98-19Q257.98-7.5 254.7-1.75 251.43 4 244.88 4L244.88 4Q239.88 4 237.43-0.35 234.98-4.7 234.98-13.5L234.98-13.5Q234.98-18.2 235.75-23.33 236.53-28.45 237.58-31.35L237.58-31.35Q238.08-31.5 238.95-31.6 239.83-31.7 240.53-31.7L240.53-31.7Q241.23-31.7 241.8-31.6 242.38-31.5 242.78-31.35L242.78-31.35Q241.78-26.75 241.25-22.6 240.73-18.45 240.73-14.85L240.73-14.85Q240.73-7.15 241.95-3.53 243.18 0.1 245.78 0.1L245.78 0.1Q248.88 0.1 250.6-4.25 252.33-8.6 252.33-16.35L252.33-16.35Q252.33-20.95 251.78-25.35 251.23-29.75 250.03-34.35L250.03-34.35Q251.18-34.8 252.73-35.05 254.28-35.3 255.73-35.35ZM288.88-0.75L288.88-0.75Q288.18-0.05 286.82 0.63 285.47 1.3 284.07 1.7L284.07 1.7Q281.18-4.75 279.2-8.43 277.22-12.1 274.93-15.4L274.93-15.4Q273.97-15.05 272.88-14.68 271.77-14.3 270.13-13.8L270.13-13.8Q269.97-9.85 269.77-6.38 269.57-2.9 269.27 0.25L269.27 0.25Q268.27 0.35 266.97 0.28 265.68 0.2 264.77 0L264.77 0Q265.02-5.8 265.05-7.25 265.07-8.7 265.07-10.1L265.07-10.1Q265.07-17.75 264.8-23 264.52-28.25 263.77-34.9L263.77-34.9Q265.97-36.6 268.9-37.55 271.82-38.5 274.77-38.5L274.77-38.5Q280.07-38.5 283.13-35.85 286.18-33.2 286.18-28.7L286.18-28.7Q286.18-25.2 284.38-22.35 282.57-19.5 279.02-17.35L279.02-17.35Q281.47-14.4 283.93-10.28 286.38-6.15 288.88-0.75ZM269.63-34L269.63-34Q269.93-30.15 270.05-26.75 270.18-23.35 270.18-19.7L270.18-19.7Q270.18-19.15 270.18-18.57 270.18-18 270.18-17.4L270.18-17.4Q275.52-18.75 278.1-21.33 280.68-23.9 280.68-27.95L280.68-27.95Q280.68-31.35 278.97-33.18 277.27-35 274.18-35L274.18-35Q273.07-35 271.93-34.75 270.77-34.5 269.63-34ZM298.12-11.35L298.12-11.35Q298.17-8 298.35-4.58 298.52-1.15 298.87 3.4L298.87 3.4Q297.82 3.45 296.45 3.35 295.07 3.25 294.27 3.1L294.27 3.1Q293.47-5.55 293.17-12.05 292.87-18.55 292.87-26.9L292.87-26.9Q292.87-28.7 292.97-31.13 293.07-33.55 293.22-35.4L293.22-35.4Q295.67-36.25 298.27-36.68 300.87-37.1 303.37-37.1L303.37-37.1Q309.47-37.1 312.8-34.52 316.12-31.95 316.12-27.35L316.12-27.35Q316.12-22.05 311.6-18.03 307.07-14 298.12-11.35ZM298.92-33.1L298.92-33.1Q298.52-28.9 298.32-24.73 298.12-20.55 298.12-15.45L298.12-15.45Q298.12-15.4 298.12-15.33 298.12-15.25 298.12-15.15L298.12-15.15Q304.27-16.75 307.42-19.63 310.57-22.5 310.57-26.55L310.57-26.55Q310.57-29.95 308.57-31.8 306.57-33.65 302.82-33.65L302.82-33.65Q301.82-33.65 300.82-33.5 299.82-33.35 298.92-33.1ZM341.82-0.7L341.82-0.7Q342.02 0.1 342.19 1.43 342.37 2.75 342.37 3.6L342.37 3.6Q337.52 3.65 333.42 3.95 329.32 4.25 324.02 5L324.02 5Q322.67-4.35 322-14.53 321.32-24.7 321.52-33.05L321.52-33.05Q322.72-33.4 323.8-33.55 324.87-33.7 326.02-33.7L326.02-33.7Q326.37-33.7 326.77-33.68 327.17-33.65 327.62-33.6L327.62-33.6Q327.32-30.85 327.19-27.43 327.07-24 327.07-19.05L327.07-19.05Q327.17-12.4 327.5-7.98 327.82-3.55 328.42 0.55L328.42 0.55Q331.72-0.05 335.22-0.38 338.72-0.7 341.82-0.7ZM366.67 0.6L366.67 0.6Q362.97 1.2 357.79 1.58 352.62 1.95 347.92 2.05L347.92 2.05Q346.52-7 345.57-17.1 344.62-27.2 344.52-34.4L344.52-34.4Q351.12-35.65 355.77-36.15 360.42-36.65 365.47-36.75L365.47-36.75Q365.52-35.7 365.42-34.58 365.32-33.45 365.07-32.3L365.07-32.3Q361.27-32.3 357.69-32.05 354.12-31.8 350.57-31.3L350.57-31.3Q350.47-28.45 350.49-25.53 350.52-22.6 350.67-19.6L350.67-19.6Q354.67-20.4 357.39-20.78 360.12-21.15 362.82-21.35L362.82-21.35Q363.07-20.3 363.17-19.28 363.27-18.25 363.22-17.1L363.22-17.1Q359.42-16.85 356.64-16.57 353.87-16.3 350.92-15.8L350.92-15.8Q351.12-12.85 351.47-9.33 351.82-5.8 352.32-2.1L352.32-2.1Q355.82-2.2 359.54-2.63 363.27-3.05 366.27-3.7L366.27-3.7Q366.52-3 366.62-1.75 366.72-0.5 366.67 0.6Z" opacity="1" transform="matrix(1,0,0,1,0,0)" fill="white" class="wordmark-text-0" id="SvgjsPath1052"></path></svg></g></svg></g></svg></g></svg></g><g transform="matrix(1,0,0,1,70.27949082318008,0)"><svg viewBox="0 0 103.8723783536398 103.8723783536398" height="103.8723783536398" width="103.8723783536398"><g><svg></svg></g><g id="SvgjsG1051"><svg viewBox="0 0 103.8723783536398 103.8723783536398" height="103.8723783536398" width="103.8723783536398"><g></g><g transform="matrix(1,0,0,1,30.79969912082283,25.09762626725974)"><svg viewBox="0 0 42.272980111994144 53.67712581912032" height="53.67712581912032" width="42.272980111994144"><g><svg xmlns="http://www.w3.org/2000/svg" xmlns:xlink="http://www.w3.org/1999/xlink" version="1.1" x="0" y="0" viewBox="26.638 20.337624951996943 46.721999999999994 59.32637504800307" enable-background="new 0 0 100 100" xml:space="preserve" height="53.67712581912032" width="42.272980111994144" class="icon-z$-0" data-fill-palette-color="accent" id="SvgjsSvg1050"></svg></g></svg></g></svg></g></svg></g><g></g></svg></g></svg></g><g></g></svg></g><defs><mask></mask></defs></svg></g></mask><linearGradient x1="0.054" x2="0.941" y1="0.5" y2="0.5" id="33cc7111-fa26-43bf-bf46-54448ae32dac"><stop stop-color="#864d25" offset="0"></stop><stop stop-color="#f1c4b3" offset="0.498"></stop><stop stop-color="#864d25" offset="1"></stop></linearGradient><rect width="395.52" height="247.2" fill="url(#33cc7111-fa26-43bf-bf46-54448ae32dac)" mask="url(#135a3b97-f67f-4eee-aeee-7de9edb0f9a0)" data-fill-palette-color="primary"></rect><mask id="5f1e4591-d4bf-4e3a-a8e7-879303a2efd1"><g id="SvgjsG1066"><svg viewBox="0 0 395.52 247.2" height="247.2" width="395.52"><g><svg></svg></g><g><svg viewBox="0 0 395.52 247.2" height="247.2" width="395.52"><g transform="matrix(1,0,0,1,75.54432,50.02306510119142)"><svg viewBox="0 0 244.43135999999998 147.15386979761715" height="147.15386979761715" width="244.43135999999998"><g><svg viewBox="0 0 244.43135999999998 147.15386979761715" height="147.15386979761715" width="244.43135999999998"><g transform="matrix(1,0,0,1,0,117.75371856053202)"><svg viewBox="0 0 244.43135999999998 29.40015123708512" height="29.40015123708512" width="244.43135999999998"><g id="SvgjsG1065"><svg viewBox="0 0 244.43135999999998 29.40015123708512" height="29.40015123708512" width="244.43135999999998" id="SvgjsSvg1064"><g><svg viewBox="0 0 244.43135999999998 29.40015123708512" height="29.40015123708512" width="244.43135999999998"><g transform="matrix(1,0,0,1,0,0)"><svg width="244.43135999999998" viewBox="2.15 -38.5 364.53666666666504 43.85" height="29.40015123708512" data-palette-color="url(#33cc7111-fa26-43bf-bf46-54448ae32dac)"></svg></g></svg></g></svg></g></svg></g><g transform="matrix(1,0,0,1,70.27949082318008,0)"><svg viewBox="0 0 103.8723783536398 103.8723783536398" height="103.8723783536398" width="103.8723783536398"><g><svg></svg></g><g id="SvgjsG1063"><svg viewBox="0 0 103.8723783536398 103.8723783536398" height="103.8723783536398" width="103.8723783536398"><g><path d="M0 51.936c0-28.684 23.253-51.936 51.936-51.936 28.684 0 51.936 23.253 51.936 51.936 0 28.684-23.253 51.936-51.936 51.936-28.684 0-51.936-23.253-51.936-51.936zM51.936 101.221c27.219 0 49.285-22.066 49.285-49.285 0-27.219-22.066-49.285-49.285-49.285-27.219 0-49.285 22.066-49.285 49.285 0 27.219 22.066 49.285 49.285 49.285z" fill="white" stroke="transparent"></path></g><g transform="matrix(1,0,0,1,30.79969912082283,25.09762626725974)"><svg viewBox="0 0 42.272980111994144 53.67712581912032" height="53.67712581912032" width="42.272980111994144"><g><svg xmlns="http://www.w3.org/2000/svg" xmlns:xlink="http://www.w3.org/1999/xlink" version="1.1" x="0" y="0" viewBox="26.638 20.337624951996943 46.721999999999994 59.32637504800307" enable-background="new 0 0 100 100" xml:space="preserve" height="53.67712581912032" width="42.272980111994144" class="icon-z$-0" data-fill-palette-color="accent" id="SvgjsSvg1062"></svg></g></svg></g></svg></g></svg></g><g></g></svg></g></svg></g><g><path d="M105.817 43.082A122.216 122.216 0 0 1 289.703 43.082L287.052 43.082A119.564 119.564 0 0 0 108.468 43.082L105.817 43.082M105.817 204.118A122.216 122.216 0 0 0 289.703 204.118L287.052 204.118A119.564 119.564 0 0 1 108.468 204.118L105.817 204.118" fill="white" stroke="transparent"></path></g></svg></g><defs><mask></mask></defs><mask><g id="SvgjsG1061"><svg viewBox="0 0 395.52 247.2" height="247.2" width="395.52"><g><svg></svg></g><g><svg viewBox="0 0 395.52 247.2" height="247.2" width="395.52"><g transform="matrix(1,0,0,1,75.54432,50.02306510119142)"><svg viewBox="0 0 244.43135999999998 147.15386979761715" height="147.15386979761715" width="244.43135999999998"><g><svg viewBox="0 0 244.43135999999998 147.15386979761715" height="147.15386979761715" width="244.43135999999998"><g transform="matrix(1,0,0,1,0,117.75371856053202)"><svg viewBox="0 0 244.43135999999998 29.40015123708512" height="29.40015123708512" width="244.43135999999998"><g id="SvgjsG1060"><svg viewBox="0 0 244.43135999999998 29.40015123708512" height="29.40015123708512" width="244.43135999999998" id="SvgjsSvg1059"><g><svg viewBox="0 0 244.43135999999998 29.40015123708512" height="29.40015123708512" width="244.43135999999998"><g transform="matrix(1,0,0,1,0,0)"><svg width="244.43135999999998" viewBox="2.15 -38.5 364.53666666666504 43.85" height="29.40015123708512" data-palette-color="url(#33cc7111-fa26-43bf-bf46-54448ae32dac)"></svg></g></svg></g></svg></g></svg></g><g transform="matrix(1,0,0,1,70.27949082318008,0)"><svg viewBox="0 0 103.8723783536398 103.8723783536398" height="103.8723783536398" width="103.8723783536398"><g><svg></svg></g><g id="SvgjsG1057"><svg viewBox="0 0 103.8723783536398 103.8723783536398" height="103.8723783536398" width="103.8723783536398"><g></g><g transform="matrix(1,0,0,1,30.79969912082283,25.09762626725974)"><svg viewBox="0 0 42.272980111994144 53.67712581912032" height="53.67712581912032" width="42.272980111994144"><g><svg xmlns="http://www.w3.org/2000/svg" xmlns:xlink="http://www.w3.org/1999/xlink" version="1.1" x="0" y="0" viewBox="26.638 20.337624951996943 46.721999999999994 59.32637504800307" enable-background="new 0 0 100 100" xml:space="preserve" height="53.67712581912032" width="42.272980111994144" class="icon-z$-0" data-fill-palette-color="accent" id="SvgjsSvg1056"></svg></g></svg></g></svg></g></svg></g><g></g></svg></g></svg></g><g></g></svg></g><defs><mask></mask></defs></svg></g></mask></svg></g></mask><linearGradient x1="0" x2="1" y1="0.5" y2="0.5" id="a031b3dc-0b02-4f31-904d-23a164de72b7"><stop stop-color="#f00b51" offset="0"></stop><stop stop-color="#730062" offset="1"></stop></linearGradient></svg><rect width="395.52" height="247.2" fill="none" stroke="none" visibility="hidden"></rect></g></svg></g></svg>